{
  "accessors": [
    {
      "bufferView": 1,
      "componentType": 5126,
      "count": 65534,
      "max": [
        3.9601500034332275,
        2.873260021209717,
        4.445950031280518
      ],
      "min": [
        -4.523789882659912,
        -7.0941901206970215,
        -2.482340097427368
      ],
      "type": "VEC3"
    },
    {
      "bufferView": 1,
      "byteOffset": 786408,
      "componentType": 5126,
      "count": 65534,
      "max": [
        1.0,
        1.0,
        1.0
      ],
      "min": [
        -1.0,
        -1.0,
        -1.0
      ],
      "type": "VEC3"
    },
    {
      "bufferView": 0,
      "componentType": 5125,
      "count": 113292,
      "type": "SCALAR"
    },
    {
      "bufferView": 1,
      "byteOffset": 1572816,
      "componentType": 5126,
      "count": 52734,
      "max": [
        3.958470106124878,
        2.873260021209717,
        4.436039924621582
      ],
      "min": [
        -4.401480197906494,
        -7.080289840698242,
        -2.482340097427368
      ],
      "type": "VEC3"
    },
    {
      "bufferView": 1,
      "byteOffset": 2205624,
      "componentType": 5126,
      "count": 52734,
      "max": [
        1.0,
        1.0,
        1.0
      ],
      "min": [
        -1.0,
        -1.0,
        -1.0
      ],
      "type": "VEC3"
    },
    {
      "bufferView": 0,
      "byteOffset": 453168,
      "componentType": 5125,
      "count": 74658,
      "type": "SCALAR"
    }
  ],
  "asset": {
    "extras": {
      "author": "JuanG3D (https://sketchfab.com/juang3d)",
      "license": "CC-BY-4.0 (http://creativecommons.org/licenses/by/4.0/)",
      "source": "https://sketchfab.com/3d-models/canadian-screen-award-e4610c35829e4b30972f9fcca3d6d233",
      "title": "Canadian Screen Award"
    },
    "generator": "Sketchfab-12.65.0",
    "version": "2.0"
  },
  "bufferViews": [
    {
      "buffer": 0,
      "byteLength": 751800,
      "name": "floatBufferViews",
      "target": 34963
    },
    {
      "buffer": 0,
      "byteLength": 2838432,
      "byteOffset": 751800,
      "byteStride": 12,
      "name": "floatBufferViews",
      "target": 34962
    }
  ],
  "buffers": [
    {
      "byteLength": 3590232,
      "uri": "scene.bin"
    }
  ],
  "materials": [
    {
      "doubleSided": true,
      "name": "Scene_-_Root",
      "pbrMetallicRoughness": {
        "baseColorFactor": [
          0.2788942634768104,
          0.20863687014525575,
          0.05612849004960009,
          1.0
        ],
        "roughnessFactor": 0.05
      }
    }
  ],
  "meshes": [
    {
      "name": "PaloCentral.002",
      "primitives": [
        {
          "attributes": {
            "NORMAL": 1,
            "POSITION": 0
          },
          "indices": 2,
          "material": 0,
          "mode": 4
        }
      ]
    },
    {
      "name": "PaloCentral.002",
      "primitives": [
        {
          "attributes": {
            "NORMAL": 4,
            "POSITION": 3
          },
          "indices": 5,
          "material": 0,
          "mode": 4
        }
      ]
    }
  ],
  "nodes": [
    {
      "children": [
        1
      ],
      "matrix": [
        1.0,
        0.0,
        0.0,
        0.0,
        0.0,
        2.220446049250313e-16,
        -1.0,
        0.0,
        0.0,
        1.0,
        2.220446049250313e-16,
        0.0,
        0.0,
        0.0,
        0.0,
        1.0
      ],
      "name": "Sketchfab_model"
    },
    {
      "children": [
        2
      ],
      "name": "Root"
    },
    {
      "children": [
        3,
        4
      ],
      "matrix": [
        0.2116,
        0.0,
        0.0,
        0.0,
        0.0,
        0.2116,
        0.0,
        0.0,
        0.0,
        0.0,
        1.0,
        0.0,
        0.0,
        0.0,
        0.0,
        1.0
      ],
      "name": "PaloCentral.002"
    },
    {
      "mesh": 0,
      "name": "PaloCentral.002"
    },
    {
      "mesh": 1,
      "name": "PaloCentral.002"
    }
  ],
  "scene": 0,
  "scenes": [
    {
      "name": "Sketchfab_Scene",
      "nodes": [
        0
      ]
    }
  ]
}
